HIERARCHY
ROOT hip
{
  OFFSET 0 0 0
  CHANNELS 6 Xposition Yposition Zposition Zrotation Yrotation Xrotation
  JOINT abdomen
  {
    OFFSET 0 20.6881 -0.73152
    CHANNELS 3 Zrotation Xrotation Yrotation
    JOINT chest
    {
      OFFSET 0 11.7043 -0.48768
      CHANNELS 3 Zrotation Xrotation Yrotation
      JOINT neck
      {
        OFFSET 0 22.1894 -2.19456
        CHANNELS 3 Zrotation Xrotation Yrotation
        JOINT head
        {
          OFFSET -0.24384 7.07133 1.2192
          CHANNELS 3 Zrotation Xrotation Yrotation
          JOINT leftEye
          {
            OFFSET 4.14528 8.04674 8.04672
            CHANNELS 3 Zrotation Xrotation Yrotation
            End Site
            {
              OFFSET 1 0 0
            }
          }
          JOINT rightEye
          {
            OFFSET -3.6576 8.04674 8.04672
            CHANNELS 3 Zrotation Xrotation Yrotation
            End Site
            {
              OFFSET 1 0 0
            }
          }
        }
      }
      JOINT rCollar
      {
        OFFSET -2.68224 19.2634 -4.8768
        CHANNELS 3 Zrotation Xrotation Yrotation
        JOINT rShldr
        {
          OFFSET -8.77824 -1.95073 1.46304
          CHANNELS 3 Zrotation Xrotation Yrotation
          JOINT rForeArm
          {
            OFFSET -28.1742 -1.7115 0.48768
            CHANNELS 3 Zrotation Xrotation Yrotation
            JOINT rHand
            {
              OFFSET -22.5879 0.773209 7.07136
              CHANNELS 3 Zrotation Xrotation Yrotation
              JOINT rThumb1
              {
                OFFSET -1.2192 -0.487915 3.41376
                CHANNELS 3 Zrotation Xrotation Yrotation
                JOINT rThumb2
                {
                  OFFSET -3.37035 -0.52449 3.41376
                  CHANNELS 3 Zrotation Xrotation Yrotation
                  End Site
                  {
                    OFFSET -1.78271 -1.18214 1.43049
                  }
                }
              }
              JOINT rIndex1
              {
                OFFSET -7.75947 0.938293 5.60832
                CHANNELS 3 Zrotation Xrotation Yrotation
                JOINT rIndex2
                {
                  OFFSET -2.54057 -0.884171 1.56538
                  CHANNELS 3 Zrotation Xrotation Yrotation
                  End Site
                  {
                    OFFSET -1.62519 -0.234802 1.16502
                  }
                }
              }
              JOINT rMid1
              {
                OFFSET -8.24714 1.18213 3.41376
                CHANNELS 3 Zrotation Xrotation Yrotation
                JOINT rMid2
                {
                  OFFSET -3.10165 -0.590103 1.0647
                  CHANNELS 3 Zrotation Xrotation Yrotation
                  End Site
                  {
                    OFFSET -2.48547 -0.328903 0.83742
                  }
                }
              }
              JOINT rRing1
              {
                OFFSET -8.82822 0.546677 1.51678
                CHANNELS 3 Zrotation Xrotation Yrotation
                JOINT rRing2
                {
                  OFFSET -2.60934 -0.819778 -0.0198488
                  CHANNELS 3 Zrotation Xrotation Yrotation
                  End Site
                  {
                    OFFSET -2.33842 -0.294052 0.168128
                  }
                }
              }
              JOINT rPinky1
              {
                OFFSET -8.27202 -0.0477905 -0.4584
                CHANNELS 3 Zrotation Xrotation Yrotation
                JOINT rPinky2
                {
                  OFFSET -1.82734 -0.647385 -0.700984
                  CHANNELS 3 Zrotation Xrotation Yrotation
                  End Site
                  {
                    OFFSET -1.69225 -0.51767 -0.607171
                  }
                }
              }
            }
          }
        }
      }
      JOINT lCollar
      {
        OFFSET 2.68224 19.2634 -4.8768
        CHANNELS 3 Zrotation Xrotation Yrotation
        JOINT lShldr
        {
          OFFSET 8.77824 -1.95073 1.46304
          CHANNELS 3 Zrotation Xrotation Yrotation
          JOINT lForeArm
          {
            OFFSET 28.1742 -1.7115 0.48768
            CHANNELS 3 Zrotation Xrotation Yrotation
            JOINT lHand
            {
              OFFSET 22.5879 0.773209 7.07136
              CHANNELS 3 Zrotation Xrotation Yrotation
              JOINT lThumb1
              {
                OFFSET 1.2192 -0.487915 3.41376
                CHANNELS 3 Zrotation Xrotation Yrotation
                JOINT lThumb2
                {
                  OFFSET 3.37035 -0.52449 3.41376
                  CHANNELS 3 Zrotation Xrotation Yrotation
                  End Site
                  {
                    OFFSET 1.78271 -1.18214 1.43049
                  }
                }
              }
              JOINT lIndex1
              {
                OFFSET 7.75947 0.938293 5.60832
                CHANNELS 3 Zrotation Xrotation Yrotation
                JOINT lIndex2
                {
                  OFFSET 2.54057 -0.884171 1.56538
                  CHANNELS 3 Zrotation Xrotation Yrotation
                  End Site
                  {
                    OFFSET 1.62519 -0.234802 1.16502
                  }
                }
              }
              JOINT lMid1
              {
                OFFSET 8.24714 1.18213 3.41376
                CHANNELS 3 Zrotation Xrotation Yrotation
                JOINT lMid2
                {
                  OFFSET 3.10165 -0.590103 1.0647
                  CHANNELS 3 Zrotation Xrotation Yrotation
                  End Site
                  {
                    OFFSET 2.48547 -0.328903 0.83742
                  }
                }
              }
              JOINT lRing1
              {
                OFFSET 8.82822 0.546677 1.51678
                CHANNELS 3 Zrotation Xrotation Yrotation
                JOINT lRing2
                {
                  OFFSET 2.60934 -0.819778 -0.0198488
                  CHANNELS 3 Zrotation Xrotation Yrotation
                  End Site
                  {
                    OFFSET 2.33842 -0.294052 0.168128
                  }
                }
              }
              JOINT lPinky1
              {
                OFFSET 8.27202 -0.0477905 -0.4584
                CHANNELS 3 Zrotation Xrotation Yrotation
                JOINT lPinky2
                {
                  OFFSET 1.82734 -0.647385 -0.700984
                  CHANNELS 3 Zrotation Xrotation Yrotation
                  End Site
                  {
                    OFFSET 1.69225 -0.51767 -0.607171
                  }
                }
              }
            }
          }
        }
      }
    }
  }
  JOINT rButtock
  {
    OFFSET -8.77824 4.35084 1.2192
    CHANNELS 3 Zrotation Xrotation Yrotation
    JOINT rThigh
    {
      OFFSET 0 -1.70687 -2.19456
      CHANNELS 3 Zrotation Xrotation Yrotation
      JOINT rShin
      {
        OFFSET 0 -36.8199 0.73152
        CHANNELS 3 Zrotation Xrotation Yrotation
        JOINT rFoot
        {
          OFFSET 0.73152 -45.1104 -5.12064
          CHANNELS 3 Zrotation Xrotation Yrotation
          End Site
          {
            OFFSET -1.1221 -3.69964 12.103
          }
        }
      }
    }
  }
  JOINT lButtock
  {
    OFFSET 8.77824 4.35084 1.2192
    CHANNELS 3 Zrotation Xrotation Yrotation
    JOINT lThigh
    {
      OFFSET 0 -1.70687 -2.19456
      CHANNELS 3 Zrotation Xrotation Yrotation
      JOINT lShin
      {
        OFFSET 0 -36.8199 0.73152
        CHANNELS 3 Zrotation Xrotation Yrotation
        JOINT lFoot
        {
          OFFSET -0.73152 -45.1104 -5.12064
          CHANNELS 3 Zrotation Xrotation Yrotation
          End Site
          {
            OFFSET 1.1221 -3.69964 12.103
          }
        }
      }
    }
  }
}
MOTION
Frames:	8
Frame Time:	0.00833333
-9.822000000000001 80.5599 -35.5053 9.429925 33.795067 12.019969 -5.536263 -0.697043 -180.0 4.008632 1.349214 151.593642 -16.553594 16.41655 -130.434431 -11.401809 17.397468 129.261301 0.001348 0.0 0.000832 -0.004271 0.0 -0.000886 -14.147834 43.061795 15.995591 -89.352779 -8.609481 164.488759 -166.559772 -3.073857 -83.258594 -5.917202 37.282306 3.493523 -94.791919 37.828531 54.28356 -92.842857 -5.699523 63.784018 -150.884988 -16.291036 120.979988 -47.533782 55.16241 32.801158 179.734709 -58.400999 141.96098 -170.398241 -25.709918 143.975232 -145.121814 0.309674 -179.226575 -148.113756 -43.127563 -170.573582 -136.277934 -10.956459 -133.61854 -25.253418 -40.360913 -26.992049 0.048533 0.292375 -0.065547 -166.881227 -59.948595 -80.820563 90.130328 -81.831966 174.050257 169.476656 -1.025685 -142.626346 6.770599 6.520443 -1.415491 154.807477 -62.329057 -113.72174 138.495195 4.897292 -114.865444 159.238433 -6.399763 -118.587112 -23.903996 -61.333801 -1.399196 -2.492328 1.617319 -0.310071 145.120075 0.226242 179.200291 138.773484 -60.557263 160.82747 -0.10036 0.258331 -0.089352 21.382406 -39.029405 22.151623 179.980976 75.750832 0.013017 155.147616 65.16516 -152.961463 -3.833709 -52.936854 64.587625 155.608804 43.34577 -69.74969 -179.999705 75.748337 -0.000202 158.403905 37.074648 -57.187246 -38.546799 22.97375 -167.623904 131.009573 53.515365 139.457933
-10.2803 80.5408 -36.4845 9.746021 36.438289 12.389888 -2.752466 0.811702 -106.418298 4.689539 -5.55815 78.786937 -17.201713 16.038372 -124.409082 -10.843618 18.663851 123.091995 -0.000498 0.0 -0.002655 -0.000357 0.0 -0.002761 -155.577952 -3.999324 161.941838 -66.343129 -7.332474 32.252333 -0.699014 12.181331 -129.903543 146.941816 -45.134744 133.387399 1.842081 -1.827262 -0.254577 9.852757 -15.31635 -9.119551 -4.707955 7.223733 2.854403 3.869254 9.456945 1.413234 0.541796 -1.589861 -0.294602 -172.078782 -31.343894 144.10452 -13.616773 -53.680234 -25.680644 -74.245273 80.908031 91.391334 -5.514982 -12.596618 -5.173963 -159.313696 55.600933 -150.032654 9.651713 34.836096 -11.199667 84.179228 5.609901 -110.54584 -3.309285 10.189052 82.645365 166.090611 8.634447 -140.188307 68.482995 37.954061 -35.658999 166.285544 -43.953384 -82.866979 -5.922073 -10.174385 2.968642 -11.725072 1.590616 0.54363 125.645193 49.840949 -115.275356 155.729535 15.503362 -139.645102 145.118923 0.226808 179.199198 -2.636495 -43.839119 17.911078 -1.297556 3.491818 -1.192174 5.964317 -19.160212 7.475712 -0.0 -0.000105 -0.00014 -10.533669 -4.93624 77.676177 38.901332 2.197924 -91.192437 -81.920395 -1.413829 11.332235 0.005037 -0.000104 0.003777 -22.420369 -34.330686 -0.0 8.654327 35.27733 -97.35016 66.012215 43.19692 14.550078
-10.7262 80.449 -37.4361 9.956037 39.034221 12.770005 -2.32276 1.528977 -83.554955 2.859031 -7.533901 56.536344 -3.330243 1.804103 53.060981 14.559169 0.419845 -61.282227 -0.004494 -0.0 0.000783 0.002629 -0.0 -0.003047 -130.360691 54.596368 134.22678 95.195451 -6.186459 83.382725 174.344321 3.603812 47.039361 155.255928 -33.856177 140.882729 76.385094 -49.199255 28.871779 -145.430222 2.495109 113.12383 159.639765 -69.973071 102.393515 -46.221228 53.799016 36.458448 -171.870241 -41.091146 145.160548 -3.340798 17.048743 3.591526 0.000429 -0.01835 -0.006882 10.324691 0.112649 -0.050363 -154.805774 47.640267 -149.294555 -10.066755 -23.291102 -11.819155 9.651509 34.836205 -11.19917 -69.148868 -3.435047 -64.760488 -75.235699 -20.684676 -76.97731 40.029237 44.205531 -19.933736 -88.928223 -50.83138 -37.599866 77.355833 37.279885 -38.198378 152.104649 -18.55637 -121.368649 2.720265 25.133121 3.282547 169.089662 -33.247316 -145.375319 -5.10673 -5.879557 0.338265 145.11923 0.267775 179.212463 141.834311 -56.543908 163.978264 145.171499 12.067111 141.824678 126.57166 -29.684973 124.092282 -0.001646 4.8e-05 -0.000411 -7.662827 -2.876868 -69.542783 -42.398808 24.205231 -126.153824 -148.025702 16.354381 -163.387633 179.986969 75.751337 0.008916 158.824715 34.899417 -108.865027 -30.565442 -17.164091 74.136534 34.769749 -0.454544 11.503956
-11.024799999999999 80.3389 -38.3789 10.483048 41.782808 13.170028 -2.074316 1.43811 -80.342413 2.300499 -8.097426 54.122996 -14.116476 0.671488 -13.242748 16.336333 17.869845 3.163334 0.001773 0.0 0.001959 -0.002022 0.0 -0.005172 -143.619856 38.233053 148.079886 -102.865228 5.075305 77.015513 86.165496 -28.71676 -93.200872 176.866522 24.777678 152.946814 -171.705928 -9.388642 89.947809 -44.994011 -17.462757 7.744418 -108.427241 34.159629 91.742042 94.570604 -67.572534 45.977647 -36.035511 51.723217 29.832372 2.56167 2.471317 0.415935 -0.01454 -1.323068 -0.416424 -156.005926 -13.748057 173.4861 -77.072395 -51.586124 -75.529435 -147.123119 13.874863 -143.265034 -0.162757 -0.990081 0.218483 -63.206642 20.787666 -34.402734 -173.606228 13.441459 -91.520614 162.249518 18.077174 -137.076961 -83.254128 -50.258216 -33.615702 51.279554 27.410504 -12.610285 174.189952 -53.34757 -119.643469 161.289834 -22.179947 -118.508578 8.304648 20.652791 -5.560776 13.217015 36.283642 -10.580583 145.062704 -3.307907 178.087753 15.803813 -68.344968 37.218275 -1.134719 3.040882 -1.041698 -28.241711 75.248623 -6.33924 0.0 -0.00122 0.001192 -7.137955 -1.098485 -67.975088 -38.460819 24.654554 -127.186865 -56.334466 32.673374 -176.101286 -179.922142 75.750209 -0.060009 158.564557 35.166993 -52.408049 -36.439368 12.055894 -11.636597 29.435123 17.720708 48.103827
-11.2036 80.1838 -39.3185 11.32887 44.034617 13.819997 -4.13859 3.18296 0.057718 -5.702172 -5.417386 -25.799006 -17.651977 4.055506 -39.516434 11.278756 23.768457 30.186681 0.000375 0.0 0.00267 0.000375 0.0 0.00267 -155.516211 -3.589706 161.854126 100.256279 -21.493947 147.324456 -10.494423 -21.960087 93.323195 -5.025425 38.057788 4.053682 -103.198876 36.331012 60.111855 84.143107 -49.436768 40.381746 -1.159275 1.861726 0.668322 17.647364 -8.992086 -1.339736 173.124134 -66.29796 137.613295 -25.640299 49.046337 21.033217 -145.119378 0.268806 -179.210312 8.756564 -14.063947 -10.960766 7.925836 24.811975 7.00344 -148.317437 13.332436 -143.969695 153.160441 9.503289 -158.803254 -140.399407 -27.752103 166.465307 -150.922163 19.48912 -98.991975 151.147286 36.743208 -127.2297 172.746516 -10.423425 -89.929398 96.464346 12.631717 -38.838777 129.577671 16.76272 -108.787395 81.265024 56.098026 -60.292738 167.376097 -28.008301 -145.269363 64.990947 63.273756 -57.738707 72.132633 72.975325 -89.989291 80.941209 83.193076 -89.871242 1.151372 -2.913621 1.068213 -1.69214 -2.343448 0.715488 0.0 -0.001671 0.001934 -8.882411 -0.079329 90.507588 29.115596 -8.970595 -85.421466 47.925306 -52.014109 -26.117016 0.000899 0.000663 0.000449 -23.191953 -36.399034 -14.644849 12.676187 42.407036 95.220378 149.604924 62.92582 116.581073
-11.326600000000001 79.9674 -40.2503 12.289997 45.505194 14.619955 -6.08201 0.851158 82.063228 -3.777338 3.17919 -106.06765 0.498917 11.533957 104.194604 2.558561 -7.088699 -114.363926 0.001242 -0.0 -0.004224 -0.000577 -0.0 0.001089 4.12525 -55.349413 -11.067356 -36.058935 -14.36897 -82.23929 11.579849 -35.440199 -127.04684 152.429756 -37.634814 138.884631 -174.053145 -11.718371 89.876888 -48.879046 -13.607707 8.111515 12.216728 -21.78468 -5.119829 -72.258901 49.128225 58.059691 -36.036131 51.723084 29.832364 -174.200722 -37.193975 143.495929 -145.119907 0.267512 -179.212941 12.11415 44.873472 -3.842545 -132.782314 -17.596353 -130.286002 -20.755736 -36.975563 -22.824955 149.905069 22.421614 -154.974931 53.937846 -0.75768 -0.505048 159.929749 -12.445215 116.198869 5.667283 -32.847256 6.931095 158.449553 3.763614 -88.551516 -16.896283 -53.811721 -21.610509 -23.563561 -41.522366 5.64297 -125.882484 -63.440361 -64.651812 161.518522 -9.304137 -143.626095 85.921752 63.86152 -77.756058 73.164514 -72.140214 90.199183 71.712945 83.312844 -89.503988 1.600415 -4.015318 1.487493 155.960609 43.520596 149.198363 -0.004593 0.000924 -0.004593 -8.480848 0.969195 89.569891 37.460763 -14.545555 40.545338 -67.668558 10.313924 -161.387017 179.991801 75.747748 0.00561 156.58498 33.342574 77.69497 48.010602 11.04262 59.562755 -166.65083 -0.91017 143.647647
-11.4186 79.6489 -41.0751 12.585839 46.341691 14.750024 -5.49413 0.152747 90.749516 -2.923359 3.987207 -113.005794 -12.932035 2.106782 -9.127771 17.712318 17.128557 -2.906141 0.001959 0.0 0.004661 -0.003453 -0.0 0.002786 -82.106289 68.324881 85.221491 150.585225 -25.044631 72.927384 -134.351997 -66.637057 86.973586 129.464125 -56.64009 118.089411 51.059712 -41.204364 12.855848 -53.475256 -85.257807 -102.403836 -77.667038 43.028998 64.538788 47.998028 -52.585415 8.745343 -0.57085 1.648295 0.323111 -154.075487 20.053883 138.725352 -145.098216 -1.604358 -178.622331 -152.238082 -25.057149 -175.331799 -1.149853 -2.914262 -1.066152 1.450544 -2.971103 -0.922815 158.467436 -30.055488 -166.920275 31.700846 -1.036675 41.342471 -27.411937 -22.066587 90.853878 156.569739 28.64722 -132.24526 -4.531307 -4.513929 0.520554 131.63466 -27.34745 -117.487685 122.651647 23.93024 -103.498625 169.814735 -23.062295 -117.120013 0.057535 0.167849 -0.032577 129.271756 52.115619 -118.503792 145.107793 3.680662 -179.713276 -10.472037 6.929948 8.141269 20.141348 -33.377315 19.313235 -8.561725 16.847191 -4.113233 0.000875 0.000693 -0.001125 -5.981606 1.185757 -101.172081 -27.345943 0.38556 89.094343 -116.180347 10.828292 21.423727 0.000374 0.000134 0.000374 -23.04519 -37.778738 -14.9773 -3.295171 47.31606 -111.125466 19.398014 28.120521 86.982791
-11.4866 79.251 -41.7577 11.931026 46.745608 14.140078 0.021034 -0.111118 -87.855562 2.911143 -9.07972 67.970832 -1.303289 5.712866 61.249124 13.806382 -2.369263 -72.595189 -0.002424 -0.0 0.001479 -0.000563 0.0 -0.003736 -82.877704 68.29991 86.000563 -98.200116 -11.072268 112.698489 179.65915 5.538919 -83.638228 -13.082003 55.694156 7.226172 -78.030251 38.689643 42.412884 -141.077609 -28.191661 82.926803 -108.426603 34.161278 91.743643 -164.046312 -10.583814 116.175792 -4.681614 12.536408 2.931629 -13.329439 36.417318 10.641421 0.000202 -0.018535 -0.005821 -23.385989 72.955218 36.415933 16.515541 57.859256 12.547216 11.211529 31.331611 6.41518 82.877444 68.300285 -86.000615 -78.582651 -36.235468 -101.829336 4.420316 -21.763963 -68.442828 8.170612 -24.833446 6.235402 3.030572 2.964022 -0.541966 -37.52772 -56.939908 15.732655 26.599522 30.073026 -19.414867 0.430512 11.691111 -1.145486 160.808719 -7.083068 -143.306736 28.28967 51.007775 -23.590417 145.120865 1.976463 179.74875 -11.055954 13.767124 7.373032 144.111182 8.781271 140.874974 -73.130414 84.114498 34.953751 -0.003192 0.00044 -0.001596 -8.162868 1.318937 93.40867 39.149397 -12.915774 86.30138 -41.404044 54.093072 163.866738 -0.003192 0.00044 -0.001596 -22.691703 -38.499256 -14.950457 18.598654 50.052408 87.086916 -42.809922 -27.60422 -130.852989
